<?xml version="1.0" encoding="utf-8"?>
<!-- Generator: Adobe Illustrator 16.0.1, SVG Export Plug-In . SVG Version: 6.00 Build 0)  -->
<!DOCTYPE svg PUBLIC "-//W3C//DTD SVG 1.1//EN" "http://www.w3.org/Graphics/SVG/1.1/DTD/svg11.dtd">
<svg version="1.1" id="Слой_1" xmlns="http://www.w3.org/2000/svg" xmlns:xlink="http://www.w3.org/1999/xlink" x="0px" y="0px"
	 width="7.583px" height="13.648px" viewBox="0 0 7.583 13.648" enable-background="new 0 0 7.583 13.648" xml:space="preserve">
<path fill-rule="evenodd" clip-rule="evenodd" fill="#C5E7EB" d="M7.583,0.098v2.167H6.207c-0.503,0-0.841,0.098-1.016,0.294
	c-0.175,0.196-0.262,0.49-0.262,0.882v1.555h2.569L7.156,7.421H4.928v6.227H2.241V7.421H0V4.996h2.241V3.208
	c0-1.016,0.304-1.806,0.911-2.369C3.759,0.275,4.57-0.004,5.583,0C6.444,0,7.11,0.032,7.583,0.098"/>
<path fill-rule="evenodd" clip-rule="evenodd" fill="#C5E7EB" d="M42.397,4.395c-0.384,0.539-0.846,0.996-1.387,1.372
	c0.004,0.077,0.006,0.191,0.006,0.343c0,0.71-0.109,1.421-0.326,2.131c-0.217,0.711-0.548,1.391-0.991,2.039
	c-0.442,0.65-0.97,1.226-1.578,1.729c-0.61,0.502-1.346,0.899-2.207,1.193s-1.784,0.443-2.768,0.447
	c-1.547,0-2.963-0.396-4.245-1.188c0.2,0.02,0.422,0.029,0.665,0.029c1.287,0,2.431-0.377,3.433-1.133
	c-0.597-0.008-1.132-0.183-1.605-0.526c-0.473-0.343-0.799-0.779-0.978-1.311c0.187,0.029,0.362,0.043,0.524,0.043
	c0.243,0,0.486-0.031,0.729-0.092C31.031,9.35,30.5,9.045,30.078,8.56c-0.422-0.486-0.631-1.048-0.627-1.685v-0.03
	c0.388,0.204,0.804,0.314,1.247,0.33c-0.375-0.237-0.673-0.551-0.895-0.943s-0.335-0.812-0.339-1.261
	c0-0.482,0.126-0.927,0.377-1.335c0.691,0.812,1.533,1.463,2.526,1.953c0.993,0.49,2.052,0.764,3.177,0.821
	c-0.042-0.208-0.064-0.412-0.064-0.613c0-0.731,0.269-1.355,0.807-1.874c0.536-0.518,1.188-0.776,1.956-0.771
	c0.802,0,1.475,0.277,2.021,0.833c0.622-0.115,1.208-0.327,1.758-0.637c-0.213,0.629-0.618,1.114-1.215,1.457
	C41.335,4.751,41.864,4.615,42.397,4.395"/>
<path fill-rule="evenodd" clip-rule="evenodd" fill="#C5E7EB" d="M73.757,2.754v9.292c0,0.437-0.158,0.813-0.475,1.129
	c-0.315,0.315-0.692,0.474-1.13,0.474h-9.289c-0.441,0-0.818-0.158-1.13-0.474c-0.312-0.316-0.47-0.692-0.474-1.129V2.754
	c0-0.437,0.157-0.813,0.474-1.129s0.693-0.473,1.13-0.473h9.289c0.441,0,0.818,0.157,1.13,0.473S73.751,2.318,73.757,2.754
	 M72.341,4.45V3.107c0-0.154-0.056-0.286-0.164-0.395c-0.109-0.109-0.241-0.166-0.396-0.17h-1.415c-0.158,0-0.292,0.057-0.4,0.17
	c-0.11,0.113-0.164,0.245-0.164,0.395V4.45c0,0.158,0.054,0.289,0.164,0.395c0.108,0.104,0.242,0.159,0.4,0.163h1.415
	c0.158,0,0.29-0.054,0.396-0.163C72.281,4.735,72.336,4.604,72.341,4.45 M70.032,7.375c0-0.671-0.246-1.244-0.735-1.718
	c-0.49-0.473-1.083-0.71-1.78-0.71c-0.688,0-1.277,0.237-1.768,0.71c-0.49,0.474-0.737,1.047-0.741,1.718
	c-0.005,0.673,0.242,1.246,0.741,1.719c0.498,0.474,1.087,0.71,1.768,0.71c0.692,0,1.286-0.236,1.78-0.71S70.036,8.049,70.032,7.375
	 M72.341,11.712V6.44H71.24c0.11,0.34,0.164,0.695,0.164,1.063c0,0.684-0.174,1.315-0.521,1.895
	c-0.349,0.578-0.82,1.034-1.415,1.366c-0.597,0.332-1.246,0.502-1.951,0.51c-1.069,0-1.982-0.369-2.739-1.105
	c-0.758-0.736-1.139-1.625-1.143-2.666c0-0.368,0.055-0.723,0.164-1.063H62.65v5.271c0,0.142,0.047,0.259,0.14,0.352
	c0.094,0.093,0.213,0.143,0.358,0.146h8.694c0.138,0,0.255-0.05,0.352-0.146S72.341,11.849,72.341,11.712"/>
<rect y="0" fill="none" width="73.756" height="13.648"/>
</svg>
