<?xml version="1.0" encoding="utf-8"?>
<!-- Generator: Adobe Illustrator 16.0.1, SVG Export Plug-In . SVG Version: 6.00 Build 0)  -->
<!DOCTYPE svg PUBLIC "-//W3C//DTD SVG 1.1//EN" "http://www.w3.org/Graphics/SVG/1.1/DTD/svg11.dtd">
<svg version="1.1" id="Слой_1" xmlns="http://www.w3.org/2000/svg" xmlns:xlink="http://www.w3.org/1999/xlink" x="0px" y="0px"
	 width="12.496px" height="12.496px" viewBox="0 0 12.496 12.496" enable-background="new 0 0 12.496 12.496" xml:space="preserve">
<path fill-rule="evenodd" clip-rule="evenodd" fill="#C5E7EB" d="M-53.677-1.055v2.167h-1.376c-0.503,0-0.841,0.098-1.016,0.294
	c-0.175,0.196-0.262,0.49-0.262,0.882v1.555h2.569l-0.341,2.425h-2.228v6.227h-2.687V6.269h-2.241V3.843h2.241V2.056
	c0-1.016,0.304-1.806,0.911-2.369c0.607-0.564,1.418-0.843,2.431-0.839C-54.815-1.152-54.149-1.121-53.677-1.055"/>
<path fill-rule="evenodd" clip-rule="evenodd" fill="#C5E7EB" d="M-18.862,3.242c-0.384,0.539-0.846,0.996-1.387,1.372
	c0.004,0.077,0.006,0.191,0.006,0.343c0,0.71-0.109,1.421-0.326,2.131c-0.217,0.711-0.548,1.391-0.991,2.039
	c-0.442,0.65-0.97,1.226-1.578,1.729c-0.61,0.502-1.346,0.899-2.207,1.193s-1.784,0.443-2.768,0.447
	c-1.547,0-2.963-0.396-4.245-1.188c0.2,0.02,0.422,0.029,0.665,0.029c1.287,0,2.431-0.377,3.433-1.133
	c-0.597-0.008-1.132-0.183-1.605-0.526c-0.473-0.343-0.799-0.779-0.978-1.311c0.187,0.029,0.362,0.043,0.524,0.043
	c0.243,0,0.486-0.031,0.729-0.092c-0.639-0.122-1.17-0.427-1.592-0.912c-0.422-0.486-0.631-1.048-0.627-1.685v-0.03
	c0.388,0.204,0.804,0.314,1.247,0.33c-0.375-0.237-0.673-0.551-0.895-0.943s-0.335-0.812-0.339-1.261
	c0-0.482,0.126-0.927,0.377-1.335c0.691,0.812,1.533,1.463,2.526,1.953c0.993,0.49,2.052,0.764,3.177,0.821
	c-0.042-0.208-0.064-0.412-0.064-0.613c0-0.731,0.269-1.355,0.807-1.874c0.536-0.518,1.188-0.776,1.956-0.771
	c0.802,0,1.475,0.277,2.021,0.833c0.622-0.115,1.208-0.327,1.758-0.637c-0.213,0.629-0.618,1.114-1.215,1.457
	C-19.925,3.599-19.396,3.462-18.862,3.242"/>
<path fill-rule="evenodd" clip-rule="evenodd" fill="#C5E7EB" d="M12.497,1.602v9.292c0,0.437-0.158,0.813-0.475,1.129
	c-0.315,0.315-0.692,0.474-1.13,0.474H1.604c-0.441,0-0.818-0.158-1.13-0.474C0.162,11.706,0.004,11.33,0,10.893V1.602
	c0-0.437,0.157-0.813,0.474-1.129S1.167,0,1.604,0h9.289c0.441,0,0.818,0.157,1.13,0.473S12.491,1.165,12.497,1.602 M11.081,3.297
	V1.955c0-0.154-0.056-0.286-0.164-0.395c-0.109-0.109-0.241-0.166-0.396-0.17H9.106c-0.158,0-0.292,0.057-0.4,0.17
	c-0.11,0.113-0.164,0.245-0.164,0.395v1.342c0,0.158,0.054,0.289,0.164,0.395c0.108,0.104,0.242,0.159,0.4,0.163h1.415
	c0.158,0,0.29-0.054,0.396-0.163C11.021,3.582,11.076,3.451,11.081,3.297 M8.772,6.223c0-0.671-0.246-1.244-0.735-1.718
	c-0.49-0.473-1.083-0.71-1.78-0.71c-0.688,0-1.277,0.237-1.768,0.71c-0.49,0.474-0.737,1.047-0.741,1.718
	C3.743,6.896,3.99,7.468,4.489,7.942c0.498,0.474,1.087,0.71,1.768,0.71c0.692,0,1.286-0.236,1.78-0.71S8.776,6.896,8.772,6.223
	 M11.081,10.559V5.288H9.98c0.11,0.34,0.164,0.695,0.164,1.063c0,0.684-0.174,1.315-0.521,1.895C9.274,8.824,8.803,9.28,8.208,9.612
	c-0.597,0.332-1.246,0.502-1.951,0.51c-1.069,0-1.982-0.369-2.739-1.105C2.76,8.28,2.379,7.391,2.375,6.351
	c0-0.368,0.055-0.723,0.164-1.063H1.391v5.271c0,0.142,0.047,0.259,0.14,0.352c0.094,0.093,0.213,0.143,0.358,0.146h8.694
	c0.138,0,0.255-0.05,0.352-0.146S11.081,10.696,11.081,10.559"/>
<rect x="-61.26" y="-1.152" fill="none" width="73.756" height="13.648"/>
</svg>
