<?xml version="1.0" encoding="utf-8"?>
<!-- Generator: Adobe Illustrator 16.0.1, SVG Export Plug-In . SVG Version: 6.00 Build 0)  -->
<!DOCTYPE svg PUBLIC "-//W3C//DTD SVG 1.1//EN" "http://www.w3.org/Graphics/SVG/1.1/DTD/svg11.dtd">
<svg version="1.1" id="Слой_1" xmlns="http://www.w3.org/2000/svg" xmlns:xlink="http://www.w3.org/1999/xlink" x="0px" y="0px"
	 width="14.996px" height="14.996px" viewBox="0 0 14.996 14.996" enable-background="new 0 0 14.996 14.996" xml:space="preserve">
<path fill-rule="evenodd" clip-rule="evenodd" fill="#E6E6E6" d="M5.574,9.434c-2.135,0-3.859-1.722-3.859-3.856
	s1.724-3.856,3.859-3.856s3.858,1.722,3.858,3.856S7.709,9.434,5.574,9.434 M10.718,9.434h-0.677l-0.24-0.231
	c0.869-1.008,1.347-2.293,1.346-3.625c0-4.288-4.645-6.968-8.36-4.824s-3.715,7.504,0,9.648c0.847,0.489,1.808,0.746,2.787,0.746
	c1.38,0,2.649-0.506,3.625-1.345l0.232,0.24v0.677l4.287,4.276l1.276-1.277L10.718,9.434"/>
<rect y="0" fill="none" width="14.996" height="14.996"/>
</svg>
