<?xml version="1.0" encoding="utf-8"?>
<!-- Generator: Adobe Illustrator 16.0.1, SVG Export Plug-In . SVG Version: 6.00 Build 0)  -->
<!DOCTYPE svg PUBLIC "-//W3C//DTD SVG 1.1//EN" "http://www.w3.org/Graphics/SVG/1.1/DTD/svg11.dtd">
<svg version="1.1" id="Слой_1" xmlns="http://www.w3.org/2000/svg" xmlns:xlink="http://www.w3.org/1999/xlink" x="0px" y="0px"
	 width="13.496px" height="10.497px" viewBox="0 0 13.496 10.497" enable-background="new 0 0 13.496 10.497" xml:space="preserve">
<path fill-rule="evenodd" clip-rule="evenodd" fill="#C5E7EB" d="M-21.319-3.053v2.167h-1.376c-0.503,0-0.841,0.098-1.016,0.294
	c-0.175,0.196-0.262,0.49-0.262,0.882v1.555h2.569l-0.341,2.425h-2.228v6.227h-2.687V4.27h-2.241V1.845h2.241V0.057
	c0-1.016,0.304-1.806,0.911-2.369c0.607-0.564,1.418-0.843,2.431-0.839C-22.458-3.151-21.792-3.119-21.319-3.053"/>
<path fill-rule="evenodd" clip-rule="evenodd" fill="#C5E7EB" d="M13.496,1.243c-0.384,0.539-0.846,0.996-1.387,1.372
	c0.004,0.077,0.006,0.191,0.006,0.343c0,0.71-0.109,1.421-0.326,2.131c-0.217,0.711-0.548,1.391-0.991,2.039
	c-0.442,0.65-0.97,1.226-1.578,1.729c-0.61,0.502-1.346,0.899-2.207,1.193s-1.784,0.443-2.768,0.447
	c-1.547,0-2.963-0.396-4.245-1.188c0.2,0.02,0.422,0.029,0.665,0.029c1.287,0,2.431-0.377,3.433-1.133
	C3.501,8.198,2.966,8.023,2.493,7.68C2.02,7.337,1.694,6.9,1.515,6.369c0.187,0.029,0.362,0.043,0.524,0.043
	c0.243,0,0.486-0.031,0.729-0.092c-0.639-0.122-1.17-0.427-1.592-0.912C0.754,4.922,0.545,4.36,0.549,3.723v-0.03
	c0.388,0.204,0.804,0.314,1.247,0.33C1.421,3.786,1.123,3.472,0.901,3.08S0.566,2.268,0.562,1.819c0-0.482,0.126-0.927,0.377-1.335
	C1.63,1.296,2.472,1.947,3.465,2.437c0.993,0.49,2.052,0.764,3.177,0.821C6.6,3.05,6.578,2.846,6.578,2.645
	c0-0.731,0.269-1.355,0.807-1.874C7.92,0.253,8.573-0.005,9.34,0c0.802,0,1.475,0.277,2.021,0.833
	c0.622-0.115,1.208-0.327,1.758-0.637C12.906,0.825,12.5,1.31,11.904,1.653C12.433,1.6,12.962,1.463,13.496,1.243"/>
<path fill-rule="evenodd" clip-rule="evenodd" fill="#C5E7EB" d="M44.855-0.397v9.292c0,0.437-0.158,0.813-0.475,1.129
	c-0.315,0.315-0.692,0.474-1.13,0.474h-9.289c-0.441,0-0.818-0.158-1.13-0.474c-0.312-0.316-0.47-0.692-0.474-1.129v-9.292
	c0-0.437,0.157-0.813,0.474-1.129s0.693-0.473,1.13-0.473h9.289c0.441,0,0.818,0.157,1.13,0.473S44.849-0.833,44.855-0.397
	 M43.439,1.298v-1.342c0-0.154-0.056-0.286-0.164-0.395c-0.109-0.109-0.241-0.166-0.396-0.17h-1.415c-0.158,0-0.292,0.057-0.4,0.17
	C40.954-0.326,40.9-0.194,40.9-0.044v1.342c0,0.158,0.054,0.289,0.164,0.395c0.108,0.104,0.242,0.159,0.4,0.163h1.415
	c0.158,0,0.29-0.054,0.396-0.163C43.379,1.583,43.434,1.452,43.439,1.298 M41.13,4.224c0-0.671-0.246-1.244-0.735-1.718
	c-0.49-0.473-1.083-0.71-1.78-0.71c-0.688,0-1.277,0.237-1.768,0.71c-0.49,0.474-0.737,1.047-0.741,1.718
	c-0.005,0.673,0.242,1.246,0.741,1.719c0.498,0.474,1.087,0.71,1.768,0.71c0.692,0,1.286-0.236,1.78-0.71S41.134,4.897,41.13,4.224
	 M43.439,8.561V3.289h-1.101c0.11,0.34,0.164,0.695,0.164,1.063c0,0.684-0.174,1.315-0.521,1.895
	c-0.349,0.578-0.82,1.034-1.415,1.366c-0.597,0.332-1.246,0.502-1.951,0.51c-1.069,0-1.982-0.369-2.739-1.105
	c-0.758-0.736-1.139-1.625-1.143-2.666c0-0.368,0.055-0.723,0.164-1.063h-1.148v5.271c0,0.142,0.047,0.259,0.14,0.352
	c0.094,0.093,0.213,0.143,0.358,0.146h8.694c0.138,0,0.255-0.05,0.352-0.146S43.439,8.697,43.439,8.561"/>
<rect x="-28.902" y="-3.151" fill="none" width="73.756" height="13.648"/>
</svg>
